<svg width="300" height="300" viewBox="0 0 300 300" fill="none" xmlns="http://www.w3.org/2000/svg">
<rect width="300" height="300" fill="url(#paint0_linear)"/>
<path d="M97.1434 171.158V173.655L106.491 173.129L121.076 169.056L124.624 160.384L118.185 155.391L105.553 158.938C104.283 159.814 102.136 161.829 100.034 164.194C97.7426 166.772 97.0996 169.1 97.1434 171.158Z" fill="#F6BB32"/>
<path d="M122.634 170.895L126.313 167.085L121.189 161.303L111.203 162.486L111.86 168.267L122.634 170.895Z" fill="#E3A617"/>
<path d="M97.1437 173.523L103.451 171.947L106.341 170.501L120.926 174.575L124.474 183.247L118.036 188.24L105.29 182.064C104.02 181.188 101.405 180.567 99.246 178.254C97.4065 176.283 97.0999 175.582 97.1437 173.523Z" fill="#E3A617"/>
<path d="M100.954 185.349L104.896 181.539L106.078 185.086L115.67 190.999L126.97 185.875L129.204 189.16C128.372 190.079 126.103 192.471 123.686 194.678C120.663 197.438 117.641 198.357 109.758 197.963C103.45 197.648 97.45 193.758 95.4353 191.919L100.954 185.349Z" fill="#E3A617"/>
<path d="M100.954 185.218L106.078 180.225L100.297 186.926L95.4353 191.919L100.954 185.218Z" fill="#F6BB32"/>
<path d="M117.615 193.075C126.55 193.075 132.489 188.608 132.489 181.092V180.987C132.489 174.101 127.233 171.368 118.771 169.529C113.673 168.373 112.411 167.637 112.411 165.955V165.85C112.411 164.536 113.62 163.485 116.091 163.485C119.349 163.485 123.028 164.746 126.392 167.111L131.49 159.911C127.496 156.705 122.608 155.023 116.353 155.023C107.523 155.023 102.11 159.963 102.11 166.796V166.901C102.11 174.469 108.154 176.677 115.985 178.464C120.978 179.62 122.187 180.461 122.187 181.985V182.09C122.187 183.667 120.716 184.613 117.983 184.613C113.725 184.613 109.678 183.089 106.052 180.198L100.375 186.978C104.896 191.025 111.097 193.075 117.615 193.075Z" fill="white"/>
<path d="M210.539 172.735C206.965 168.215 201.779 169.012 199.633 169.976L198.319 169.581L200.158 162.617L214.743 161.303L223.153 177.597L211.327 184.692C212.553 182.59 214.113 177.255 210.539 172.735Z" fill="#DC5A08"/>
<path fill-rule="evenodd" clip-rule="evenodd" d="M222.627 178.911C222.627 179.709 222.68 180.441 222.731 181.136C222.854 182.838 222.962 184.318 222.233 186.006C221.875 186.836 221.443 187.646 220.948 188.429L222.364 187.714C221.957 188.128 221.212 188.844 220.466 189.561C220.008 190.002 219.549 190.444 219.169 190.814C215.242 195.345 209.128 198.489 203.049 198.489C192.237 198.489 183.471 189.723 183.471 178.911C183.471 172.414 186.635 166.657 191.506 163.095C191.684 162.966 191.864 162.839 192.046 162.715L193.983 160.778L194.155 161.465C196.823 160.102 199.847 159.333 203.049 159.333C204.66 159.333 202.339 163.641 199.89 168.183C197.367 172.865 194.709 177.796 196.085 178.516C196.787 178.884 197.794 179.696 198.988 180.658C202.14 183.198 206.591 186.786 210.145 186.006C213.834 185.196 217.062 182.103 219.311 179.948C221.386 177.96 222.627 176.771 222.627 178.911Z" fill="#E96E21"/>
<path fill-rule="evenodd" clip-rule="evenodd" d="M193.983 160.778L191.88 162.88L194.377 162.355L193.983 160.778ZM222.627 178.911C222.627 179.709 222.68 180.441 222.731 181.136C222.854 182.838 222.962 184.318 222.233 186.006C221.875 186.836 221.443 187.646 220.948 188.429L222.364 187.714C221.957 188.128 221.212 188.844 220.466 189.561C220.007 190.003 219.548 190.444 219.168 190.815C215.242 195.345 209.127 198.489 203.049 198.489C193.31 198.489 185.232 191.377 183.724 182.064C183.655 181.446 183.617 181.171 183.596 181.063C183.6 181.011 183.603 180.916 183.603 180.75C183.603 180.75 184.391 181.013 189.253 179.173C190.739 178.087 190.726 178.331 190.695 178.912C190.658 179.597 190.597 180.75 192.932 180.75C194.633 180.75 194.685 179.762 194.723 179.013C194.759 178.322 194.785 177.836 196.085 178.516C196.787 178.884 197.794 179.696 198.988 180.658C202.14 183.198 206.591 186.786 210.145 186.006C213.834 185.196 217.062 182.103 219.311 179.948C221.386 177.96 222.627 176.77 222.627 178.911ZM183.577 181.055C183.58 181.103 183.59 181.154 183.596 181.063C183.577 180.961 183.574 181.007 183.577 181.055Z" fill="#DC5A08"/>
<path d="M208.283 193.18C219.635 193.18 228.15 184.613 228.15 174.049V173.944C228.15 163.38 219.741 154.918 208.388 154.918C197.035 154.918 188.521 163.485 188.521 174.049V174.154C188.521 184.718 196.93 193.18 208.283 193.18ZM208.388 183.982C202.817 183.982 198.98 179.357 198.98 174.049V173.944C198.98 168.635 202.712 164.115 208.283 164.115C213.907 164.115 217.743 168.74 217.743 174.049V174.154C217.743 179.462 214.012 183.982 208.388 183.982Z" fill="white"/>
<path d="M239.183 192.444L249.432 192.497L244.439 197.437H234.19L239.183 192.444Z" fill="#E3A617"/>
<path d="M248.775 163.274L258.236 163.931C258.236 163.931 264.314 167.642 261.915 171.158C259.101 175.281 255.093 176.808 254.951 176.808C254.688 176.808 256.002 173.129 253.9 170.895C251.797 168.662 248.118 169.45 248.118 169.45L248.775 163.274Z" fill="#E3A617"/>
<path d="M234.19 160.646L239.183 155.706V192.497L234.19 197.437V160.646Z" fill="#F6BB32"/>
<path d="M249.169 186.926V181.67L251.14 179.305L267.039 177.465C267.039 177.465 261.783 183.509 258.104 185.218C254.425 186.926 249.169 186.926 249.169 186.926Z" fill="#E3A617"/>
<path d="M239.183 192.497H249.433V181.985H254.207C263.337 181.985 270 177.413 270 168.74V168.635C270 160.489 264.019 155.706 254.732 155.706H239.183L239.183 192.497ZM249.17 173.996V164.273H253.945C257.617 164.273 259.821 165.955 259.821 169.108V169.214C259.821 172.104 257.617 173.996 253.997 173.996H249.17Z" fill="white"/>
<path d="M143.789 192.444H153.907L149.045 197.437H138.796L143.789 192.444Z" fill="#352E88"/>
<path d="M166.915 192.444H177.033L172.171 197.437H161.922L166.915 192.444Z" fill="#352E88"/>
<path d="M153.25 178.254L167.309 178.385L162.185 183.509H151.936L153.25 178.254Z" fill="#352E88"/>
<path d="M138.796 160.646L143.789 155.653V192.444L138.796 197.437V160.646Z" fill="#524C9D"/>
<path d="M161.922 160.646L167.178 155.653V171.946L161.922 176.94V160.646Z" fill="#524C9D"/>
<path d="M161.922 183.509L167.178 178.516V192.444L161.922 197.437V183.509Z" fill="#524C9D"/>
<path d="M143.754 192.444H153.951V178.464H167.038V192.444H177.234V155.653H167.038V169.424H153.951V155.653H143.754V192.444Z" fill="white"/>
<path d="M79.0815 192.444H89.3305V155.653H79.0815V192.444Z" fill="white"/>
<path d="M74.1494 160.646L79.1425 155.653V192.444L74.1494 197.437V160.646Z" fill="#E96E21"/>
<path d="M79.1422 192.444H89.2598L84.3981 197.437H74.1492L79.1422 192.444Z" fill="#DC5A08"/>
<path d="M30 160.646L34.9931 155.653V192.444L30 197.437V160.646Z" fill="#C91A26"/>
<path d="M56.4106 196.123C62.3234 193.627 65.0828 188.897 65.0828 188.897L34.993 192.444L29.9999 197.437C29.9999 197.437 50.4978 198.62 56.4106 196.123Z" fill="#B50713"/>
<path d="M57.9875 163.012L44.1909 163.143V168.924C44.5851 168.881 45.4523 168.714 47.87 168.924C50.2877 169.135 50.9797 170.633 50.7607 171.29L57.5934 171.027L57.9875 163.012Z" fill="#B50713"/>
<path d="M57.9875 176.414L44.1909 176.545V182.327C44.5851 182.283 45.3735 182.327 47.87 182.327C50.2968 182.327 52.5565 183.772 52.3375 184.429H57.5934L57.9875 176.414Z" fill="#B50713"/>
<path d="M61.2723 173.655L60.3525 173.26L62.1921 170.37L63.9002 171.027L61.2723 173.655Z" fill="#B50713"/>
<path d="M34.9929 192.444H53.9666C62.7439 192.444 67.8946 188.607 67.8946 182.3V182.195C67.8946 177.202 65.0564 174.68 60.589 173.208C63.8476 171.789 66.2653 169.266 66.2653 165.009V164.904C66.2653 162.381 65.3718 160.436 63.9001 158.965C61.7452 156.81 58.4866 155.653 53.8615 155.653H34.9929V192.444ZM44.9265 170.317V163.852H51.5489C54.5973 163.852 56.174 165.009 56.174 167.006V167.111C56.174 169.266 54.4396 170.317 51.3386 170.317H44.9265ZM44.9265 184.245V177.465H52.7052C56.1215 177.465 57.6982 178.779 57.6982 180.776V180.881C57.6982 183.036 55.9112 184.245 52.8103 184.245H44.9265Z" fill="white"/>
<path d="M200.027 107.089L205.02 102.096V138.887L200.027 143.88V107.089Z" fill="#524C9D"/>
<path d="M228.934 125.353L234.19 116.024L234.059 138.887L228.934 143.88V125.353Z" fill="#524C9D"/>
<path d="M205.02 138.887L200.027 143.88H210.013L215.006 138.887H205.02Z" fill="#352E88"/>
<path d="M233.927 138.887L228.934 143.88H239.183L244.176 138.887H233.927Z" fill="#352E88"/>
<path d="M233.402 102.096L228.409 107.089L223.284 115.236L229.388 119.274L233.402 102.096Z" fill="#352E88"/>
<path d="M224.598 132.186L214.743 117.075L214.875 130.346L219.473 137.31L224.598 132.186Z" fill="#352E88"/>
<path d="M205.056 138.887H215.042V117.864L224.398 132.16H224.608L234.016 117.759V138.887H244.16V102.096H233.385L224.608 116.34L215.831 102.096H205.056V138.887Z" fill="white"/>
<path d="M152.987 138.887H163.63L158.769 143.88H147.994L152.987 138.887Z" fill="#B50713"/>
<path d="M183.208 138.887H194.114L189.121 143.88H178.215L183.208 138.887Z" fill="#B50713"/>
<path d="M166.258 132.317H180.581L175.587 137.31H164.287L166.258 132.317Z" fill="#B50713"/>
<path d="M175.545 137.31L180.581 132.186L183.209 138.887L178.215 143.88L175.545 137.31Z" fill="#C91A26"/>
<path d="M169.28 121.149L173.485 113.79L177.821 124.434L171.951 127.718L169.28 121.149Z" fill="#B50713"/>
<path d="M163.63 106.958L168.623 101.833L152.987 138.887L147.994 143.88L163.63 106.958Z" fill="#C91A26"/>
<path d="M152.975 138.887H163.697L166.325 132.317H180.516L183.196 138.887H194.128L178.466 101.833H168.637L152.975 138.887ZM169.321 124.381L173.473 113.922L177.572 124.381H169.321Z" fill="white"/>
<path d="M107.787 107.089L112.78 102.096V138.887L107.787 143.88V107.089Z" fill="#E96E21"/>
<path d="M107.787 143.88L112.78 138.887L113.831 136.785L133.803 136.128L142.344 133.5C142.344 133.5 139.699 136.617 136.562 139.15C134.779 140.591 132.747 141.684 131.175 142.304C126.839 144.012 122.372 143.88 122.372 143.88H107.787Z" fill="#DC5A08"/>
<path d="M137.22 119.309C136.799 110.9 127.584 110.374 123.029 111.163L120.664 110.637L122.372 116.287C123.554 115.98 126.708 116.077 129.861 118.915C133.015 121.753 132.314 126.93 131.569 129.164C133.628 129.383 137.64 127.719 137.22 119.309Z" fill="#DC5A08"/>
<path d="M112.78 138.887H126.809C140.054 138.887 147.78 131.003 147.78 120.387V120.281C147.78 109.665 140.159 102.096 127.019 102.096H112.78V138.887ZM123.025 129.847V111.136H127.177C133.274 111.136 137.321 114.553 137.321 120.439V120.544C137.321 126.483 133.274 129.847 127.177 129.847H123.025Z" fill="white"/>
<path d="M60.7467 138.887H71.3898L66.5282 143.88H55.7537L60.7467 138.887Z" fill="#E3A617"/>
<path d="M90.9679 138.887H101.874L96.8808 143.88H85.9749L90.9679 138.887Z" fill="#E3A617"/>
<path d="M74.0178 132.317H88.34L83.347 137.31H72.0469L74.0178 132.317Z" fill="#E3A617"/>
<path d="M83.3044 137.31L88.3401 132.186L90.968 138.887L85.975 143.88L83.3044 137.31Z" fill="#F6BB32"/>
<path d="M77.0398 121.149L81.2445 113.791L85.5806 124.434L79.7103 127.719L77.0398 121.149Z" fill="#E3A617"/>
<path d="M71.3901 106.958L76.3832 101.833L60.747 138.887L55.7539 143.88L71.3901 106.958Z" fill="#F6BB32"/>
<path d="M60.7468 138.887H71.4688L74.0967 132.317H88.2875L90.968 138.887H101.9L86.2377 101.833H76.4093L60.7468 138.887ZM77.0925 124.381L81.2447 113.922L85.3442 124.381H77.0925Z" fill="white"/>
<defs>
<linearGradient id="paint0_linear" x1="150" y1="300" x2="150" y2="-6.70674e-06" gradientUnits="userSpaceOnUse">
<stop stop-color="#3198FF"/>
<stop offset="1" stop-color="#0066CC"/>
</linearGradient>
</defs>
</svg>
