<svg width="300" height="300" viewBox="0 0 300 300" fill="none" xmlns="http://www.w3.org/2000/svg">
<rect width="300" height="300" fill="#2C3B53"/>
<path d="M131.953 124.684C113.018 121.262 97.759 107.329 87.1605 98.2172C86.2908 97.3702 85.6801 96.5486 85.3283 95.7526C84.5804 94.0604 84.3419 93.4572 84.6134 93.2151C85.1536 92.7335 87.4651 93.5911 89.5773 95.0084C106.922 106.486 121.502 113.699 133.317 116.65C134.974 117.037 136.549 117.726 137.17 119.131C138.349 121.8 137.283 123.42 134.843 124.498C134.014 124.864 133.051 124.926 131.953 124.684Z" fill="url(#paint0_linear)"/>
<path d="M93.8537 161.23L89.8277 157.281C84.6404 162.237 79.7628 165.101 72.3302 165.101C60.4071 165.101 51.3487 155.268 51.3487 142.649C51.3487 130.029 60.3297 120.351 72.3302 120.351C79.6854 120.351 84.7953 123.448 89.3632 127.783L93.544 123.293C88.1244 118.183 82.2403 114.699 72.4076 114.699C56.4586 114.699 45 127.319 45 142.803C45 158.443 56.536 170.753 72.1754 170.753C82.008 170.753 88.2019 166.959 93.8537 161.23Z" fill="#FFFCFD"/>
<path d="M106.418 153.875C106.418 141.797 113.541 135.526 122.29 135.526H122.754V129.1C115.167 128.79 109.36 133.59 106.418 140.248V129.796H100.456V169.824H106.418V153.875Z" fill="#FFFCFD"/>
<path d="M135.24 169.824V129.796H129.279V169.824H135.24Z" fill="#FFFCFD"/>
<path d="M154.031 135.061H166.728V129.796H154.031V117.718H148.069V129.796H142.495V135.061H148.069V159.217C148.069 167.346 152.947 170.521 159.373 170.521C162.237 170.521 164.483 169.901 166.573 168.817V163.708C164.483 164.714 162.779 165.101 160.766 165.101C156.74 165.101 154.031 163.32 154.031 158.443V135.061Z" fill="#FFFCFD"/>
<path d="M212.303 149.771C212.303 138.39 203.476 128.945 191.476 128.945C179.398 128.945 170.572 138.545 170.572 149.926C170.572 161.307 179.321 170.753 191.321 170.753C203.399 170.753 212.303 161.153 212.303 149.771ZM206.186 149.926C206.186 158.52 200.147 165.411 191.476 165.411C183.037 165.411 176.688 158.443 176.688 149.771C176.688 141.1 182.65 134.209 191.321 134.209C199.76 134.209 206.186 141.178 206.186 149.926Z" fill="#FFFCFD"/>
<path d="M225.966 146.907C225.966 139.397 231.076 134.364 237.967 134.364C245.012 134.364 249.038 139.01 249.038 146.442V169.824H255V144.971C255 135.448 249.348 128.945 239.67 128.945C232.78 128.945 228.599 132.429 225.966 136.764V129.796H220.005V169.824H225.966V146.907Z" fill="#FFFCFD"/>
<defs>
<linearGradient id="paint0_linear" x1="136.073" y1="120.222" x2="63.313" y2="86.2792" gradientUnits="userSpaceOnUse">
<stop stop-color="#A58A5C"/>
<stop offset="0.587778" stop-color="#A58A5C" stop-opacity="0"/>
</linearGradient>
</defs>
</svg>
