<svg width="300" height="300" viewBox="0 0 300 300" fill="none" xmlns="http://www.w3.org/2000/svg">
<rect width="300" height="300" fill="#2DE1DE"/>
<path d="M73.9043 123.528V132.651H82.8698V123.528H73.9043ZM73.9043 138.532V176.232H82.8698V138.532H73.9043Z" fill="#F2FDFD"/>
<path d="M90.3285 176.232H99.4446V159.87C99.4446 157.08 99.4446 153.235 100.876 150.445C102.157 147.957 104.869 146.223 107.807 146.223C110.746 146.223 113.157 147.957 113.985 151.275C114.287 152.33 114.287 154.215 114.287 157.005V176.232H123.252V154.064C123.252 149.163 123.252 145.092 120.917 141.925C119.033 139.362 115.341 137.401 111.047 137.401C108.109 137.401 104.643 138.381 102.383 140.04C100.801 141.096 99.8967 142.302 99.4446 142.981V138.532H90.3285V176.232Z" fill="#F2FDFD"/>
<path d="M127.285 170.652C132.031 175.251 138.661 177.363 145.366 177.363C157.044 177.363 162.318 170.35 162.318 164.469C162.318 161.303 160.811 158.287 158.475 156.477C156.065 154.592 153.88 154.215 146.044 152.783C141.222 151.953 138.435 151.199 138.435 148.485C138.435 146.524 140.394 144.639 144.688 144.639C151.318 144.639 153.88 148.334 154.934 150.37L161.338 144.413C160.585 143.509 159.379 142.227 157.496 141.02C154.934 139.211 150.791 137.401 145.065 137.401C134.743 137.401 128.942 143.282 128.942 149.691C128.942 153.084 130.6 158.287 139.565 160.398C140.921 160.775 147.099 161.906 148.38 162.207C149.585 162.434 152.298 163.037 152.298 165.45C152.298 167.335 150.037 169.898 144.839 169.898C139.64 169.898 136.25 167.862 133.99 165.073L127.285 170.652Z" fill="#F2FDFD"/>
<path d="M192.566 138.532V154.517C192.49 159.795 192.415 162.207 191.059 164.696C189.853 166.656 187.518 168.692 183.751 168.692C180.436 168.692 177.724 167.259 176.744 163.942C176.443 162.961 176.443 161.68 176.443 160.172V138.532H167.327V160.322C167.327 165.977 167.327 169.521 169.888 172.763C171.244 174.497 174.183 177.136 180.361 177.136C187.292 177.136 190.983 173.894 192.566 172.386V176.232H201.606V138.532H192.566Z" fill="#F2FDFD"/>
<path d="M209.141 138.532V176.232H217.881V162.283C217.881 156.025 217.956 152.179 221.798 149.239C224.586 147.128 227.976 147.052 229.935 146.977V137.703C221.497 137.477 219.011 141.925 217.881 143.885V138.532H209.141Z" fill="#F2FDFD"/>
<path d="M261.315 163.338C260.185 164.922 257.699 168.541 251.521 168.541C245.569 168.541 241.878 165.148 240.823 159.191H268.699C268.623 155.422 267.945 148.862 264.856 144.489C264.103 143.358 259.959 137.401 250.014 137.401C239.391 137.401 231.255 144.564 231.255 157.231C231.255 171.104 240.747 177.363 250.617 177.363C258.302 177.363 264.329 174.045 269 167.787L261.315 163.338ZM241.124 152.556C242.179 147.429 245.494 144.639 250.316 144.639C254.309 144.639 257.925 146.675 258.754 152.556H241.124Z" fill="#F2FDFD"/>
<path d="M32 123H67.1296V131.831H35.9251L32 123Z" fill="#F2FDFD"/>
<path d="M41.3221 142.014L67.1296 142.014V150.845H45.2472L41.3221 142.014Z" fill="#F2FDFD"/>
</svg>
