<svg width="300" height="300" viewBox="0 0 300 300" fill="none" xmlns="http://www.w3.org/2000/svg">
<rect width="300" height="300" fill="#55A7DF"/>
<path d="M300 300V68H0V107.871L300 300Z" fill="#2D90D3"/>
<path d="M0 158V0H300V81L0 158Z" fill="#FABF32"/>
<path d="M125.271 142.516H129.082C133.047 142.516 135.029 140.949 135.029 136.637C135.029 132.326 133.047 130.758 129.159 130.758H125.271V142.516ZM111.703 168.541V121.273C111.703 120.411 112.313 119.784 113.151 119.784H132.208C140.745 119.784 148.597 123.625 148.597 136.637C148.597 148.474 140.745 153.491 132.665 153.491H125.271V168.541C125.271 169.403 124.661 170.03 123.823 170.03H113.151C112.313 170.03 111.703 169.403 111.703 168.541" fill="white"/>
<path d="M150.332 144.946C150.332 123.39 161.156 119 172.895 119C178.994 119 182.957 120.568 184.482 121.665C185.549 122.449 186.387 123.233 186.387 124.33V133.11C186.387 134.129 185.854 134.678 184.939 134.678C184.482 134.678 183.796 134.285 182.881 133.737C181.128 132.717 178.383 131.15 174.267 131.15C167.559 131.15 164.205 134.913 164.205 144.946C164.205 154.98 167.635 158.664 174.267 158.664C178.383 158.664 181.128 157.096 182.881 156.077C183.796 155.529 184.482 155.136 184.939 155.136C185.854 155.136 186.387 155.685 186.387 156.704V165.484C186.387 166.581 185.549 167.365 184.482 168.149C182.957 169.246 178.994 170.814 172.895 170.814C161.156 170.814 150.332 166.503 150.332 144.946" fill="white"/>
<path d="M211.924 148.238C211.467 146.67 209.714 139.616 209.714 138.832C209.714 138.127 209.562 137.892 209.257 137.892C208.952 137.892 208.799 138.127 208.799 138.832C208.799 139.616 207.046 146.67 206.589 148.238L205.369 152.707H213.144L211.924 148.238ZM201.024 168.697C200.796 169.639 200.186 170.03 199.271 170.03H189.209C188.447 170.03 187.836 169.403 187.836 168.619C187.836 167.913 188.065 167.208 188.599 165.484L202.396 121.195C202.777 120.097 203.235 119.784 204.074 119.784H214.44C215.279 119.784 215.736 120.097 216.118 121.195L229.914 165.484C230.448 167.208 230.677 167.913 230.677 168.619C230.677 169.403 230.067 170.03 229.305 170.03H219.243C218.327 170.03 217.718 169.56 217.489 168.697L216.041 163.289H202.473L201.024 168.697" fill="white"/>
<path d="M246.456 142.516H250.268C254.231 142.516 256.214 140.949 256.214 136.637C256.214 132.326 254.231 130.758 250.344 130.758H246.456V142.516ZM232.888 168.541V121.273C232.888 120.411 233.498 119.784 234.336 119.784H253.393C261.93 119.784 269.783 123.625 269.783 136.637C269.783 148.474 261.93 153.491 253.851 153.491H246.456V168.541C246.456 169.403 245.846 170.03 245.008 170.03H234.336C233.498 170.03 232.888 169.403 232.888 168.541" fill="white"/>
<path d="M60.3854 124.807L60.0784 124.879C60.0888 124.883 60.0992 124.888 60.1094 124.891C60.1952 124.862 60.289 124.835 60.3854 124.807Z" fill="white"/>
<path d="M66.5479 176.182C66.351 175.97 66.0896 175.772 66.067 175.463L66.0603 175.39C66.1588 175.386 66.2572 175.381 66.3564 175.376L66.3921 175.279C66.42 175.211 66.4495 175.181 66.4941 175.17C66.5928 175.144 66.5928 175.139 66.5014 175.042C66.1447 174.659 65.904 174.063 65.642 173.603C65.6482 173.473 65.6555 173.343 65.6634 173.213C65.2516 172.625 64.7702 172.096 64.4125 171.471C64.194 171.089 64.1299 170.709 64.0825 170.271C64.0514 169.984 64.0502 169.758 63.9006 169.513C63.9006 169.13 63.9006 168.747 63.9006 168.364C63.6613 167.967 63.4217 167.571 63.1835 167.173C63.0158 166.891 62.8087 166.605 62.6886 166.297C62.4782 165.757 62.0673 165.283 61.9172 164.721C61.8061 164.303 61.8471 163.821 61.8336 163.388C61.9466 163.11 62.0802 162.83 62.1621 162.54C62.2449 162.248 62.2784 161.936 62.3296 161.636C62.6248 161.293 62.9182 160.948 63.2123 160.603C63.2292 160.414 63.2462 160.226 63.2619 160.037C63.0221 159.487 62.7021 158.964 62.8054 158.335C62.8625 157.984 62.8103 157.785 62.6594 157.449C62.4336 156.947 62.1643 156.462 62.0024 155.934C61.8479 155.431 61.6095 155.069 61.2558 154.685C60.881 154.28 60.4708 153.889 60.1725 153.418C59.9834 153.121 59.6387 152.746 59.6544 152.368C59.659 152.268 59.7425 152.255 59.8147 152.209C59.8683 152.176 59.8739 152.074 59.8902 152.017C59.967 151.751 60.0685 151.479 60.1114 151.205C60.1257 151.098 60.1233 151.09 60.0357 151.004L59.9439 150.912C60.2091 150.4 60.2893 149.888 60.3473 149.32L60.2317 149.199C60.1036 149.068 60.1036 149.082 60.2593 148.908L60.335 148.826C60.2842 148.782 60.2339 148.739 60.1836 148.695C60.1333 148.742 60.0036 148.908 59.9359 148.908C59.9037 148.908 59.8266 148.797 59.8079 148.776C59.6522 148.607 59.4908 148.438 59.3504 148.255C59.4475 148.404 58.5051 148.508 58.457 148.516C58.1788 148.566 57.8827 148.544 57.6015 148.548C57.39 148.357 57.2608 148.202 57.1396 147.936C56.9949 147.619 56.8545 147.355 56.6266 147.098C56.1845 147.063 55.7411 147.04 55.2974 147.022C54.9967 147.01 54.6572 147.017 54.3857 147.17C54.173 147.29 53.9783 147.48 53.7311 147.521C53.5414 147.552 53.4129 147.562 53.2333 147.652C52.979 147.781 52.7233 147.906 52.4654 148.028C52.3593 148.079 52.1754 148.211 52.0537 148.211C51.9027 148.231 51.6597 148.07 51.5192 148.012C51.3978 147.962 51.2771 147.912 51.1563 147.863C50.6355 147.877 50.0999 147.849 49.5905 147.977C49.1255 148.093 48.665 148.263 48.1916 148.338C47.8806 148.388 47.6559 148.238 47.3852 148.095C47.1912 147.995 46.9417 147.905 46.7757 147.758C46.5807 147.585 46.4252 147.356 46.2628 147.152C46.0778 146.92 45.8522 146.838 45.6387 146.641C45.1517 146.192 44.6676 145.739 44.1824 145.289C44.1868 145.077 44.1921 144.863 44.1976 144.651C44.136 144.577 44.0546 144.496 44.0292 144.399C44.0058 144.308 44.0413 144.128 43.9499 144.071C43.6952 143.904 43.4634 143.681 43.2282 143.488V143.335C43.2282 143.185 43.2282 143.183 43.1614 143.193C42.9951 143.221 42.6779 142.694 42.5736 142.572C42.3999 142.367 42.2244 142.164 42.0476 141.961C42.0476 141.776 42.0476 141.592 42.0476 141.407C42.1553 141.267 42.2631 141.127 42.371 140.988C42.2286 140.755 42.0566 140.523 41.9438 140.275C41.8597 140.115 42.2072 139.733 42.2966 139.591C42.4476 139.351 42.5105 139.132 42.5911 138.855C42.7574 138.283 42.9149 137.723 43.0198 137.137C42.9637 136.995 42.9072 136.853 42.8523 136.711C42.9295 136.593 43.0073 136.475 43.0858 136.357C43.0746 136.226 43.0646 136.095 43.0551 135.963C42.904 135.83 42.7923 135.759 42.7805 135.547C42.7648 135.258 42.7763 135.002 42.8381 134.717C42.8664 134.588 43.1368 134.446 43.2389 134.38C43.4026 134.237 43.4927 133.902 43.5887 133.705C43.666 133.547 43.7428 133.389 43.8196 133.231C43.942 133.148 44.0638 133.065 44.189 132.987C44.3883 132.863 44.4632 132.745 44.5773 132.53C44.6992 132.301 44.8215 132.07 44.944 131.841C44.9904 131.753 45.0354 131.613 45.1056 131.542C45.1248 131.502 45.4694 131.509 45.5326 131.505C45.6275 131.341 45.7224 131.178 45.8171 131.015C45.8829 130.9 46.0664 130.447 46.1973 130.413C46.3937 130.346 46.6737 130.383 46.8835 130.374C47.0642 130.366 47.2519 130.229 47.4133 130.151C47.8705 129.929 48.2191 129.46 48.5526 129.08C48.5725 128.822 48.5769 128.556 48.6186 128.301C48.6502 128.089 48.924 127.869 49.0299 127.688C49.0677 127.624 49.0829 127.535 49.1017 127.448L37.2422 130.225C32.9393 131.232 30.2204 135.676 31.1997 140.101L38.8326 174.581C39.8121 179.006 44.1338 181.801 48.4363 180.795L66.835 176.488C66.7396 176.386 66.644 176.283 66.5479 176.182Z" fill="white"/>
<path d="M100.053 160.25L92.4206 125.77C91.4411 121.345 87.1193 118.549 82.8166 119.556L61.2143 124.613C61.2649 124.714 61.3031 124.868 61.3298 124.928C61.3874 125.059 61.4545 124.985 61.5622 124.919C61.793 124.775 61.8203 124.839 61.9424 125.057C61.7993 125.207 61.656 125.357 61.5132 125.507C61.5453 125.806 61.7351 126.032 61.7278 126.33C61.4748 126.556 61.2247 126.785 60.9658 127.003C61.0753 127.085 61.186 127.167 61.2952 127.249C61.3649 127.202 61.5137 127.061 61.5927 127.061C61.6835 127.061 61.798 127.515 61.8755 127.583C62.0097 127.72 62.3371 127.789 62.5177 127.864C62.8357 127.854 63.1535 127.843 63.4712 127.832C63.6913 128.038 63.8717 128.056 64.1631 128.089C64.2862 128.322 64.5022 128.605 64.5642 128.858C64.6104 128.954 65.3164 128.973 65.4485 128.989C65.5671 129.071 65.6861 129.154 65.804 129.236C65.9484 129.337 66.1797 129.438 66.2848 129.582C66.3032 129.611 66.384 129.621 66.655 129.628C66.9602 129.634 67.0747 129.411 67.2637 129.19C67.2469 129.082 67.1028 128.51 67.1593 128.453C67.4427 128.162 67.8512 127.934 68.1768 127.691C68.3529 127.702 68.5295 127.722 68.706 127.722C68.8563 127.73 68.9872 127.886 69.0932 127.978C69.2862 128.145 69.3912 128.233 69.6376 128.254C69.9085 128.276 70.3127 128.199 70.4668 128.474L70.554 128.624C70.9671 128.656 71.3814 128.688 71.7951 128.72C72.0072 128.736 72.217 128.728 72.4157 128.808C72.6139 128.888 72.8108 128.967 73.0082 129.047C73.2935 128.892 73.5758 128.724 73.8686 128.582C73.9979 128.518 74.1921 129.245 74.237 129.371C74.3162 129.184 74.4659 128.534 74.7237 128.534C74.8094 128.534 74.7428 128.822 74.8986 128.807C75.3223 128.785 75.7505 128.682 76.1748 128.682C76.2823 128.682 76.6279 129.269 76.711 129.381C76.725 129.618 76.7442 129.855 76.7543 130.093C76.7596 130.228 76.6939 131.149 76.6206 131.149C76.368 131.063 76.0706 130.727 75.8521 130.557C75.8437 130.429 75.8364 130.301 75.828 130.174C75.5819 130.09 75.4978 129.895 75.3211 129.714C75.2986 129.692 75.1915 129.846 75.1772 129.867C75.3878 130.15 75.5973 130.435 75.8091 130.718C75.9494 130.904 76.1119 131.083 76.1993 131.302C76.2601 131.452 76.3058 131.608 76.3492 131.764C76.3675 131.83 76.3737 131.997 76.4186 132.043C76.4508 132.075 76.5833 132.059 76.6311 132.06C77.0215 132.622 77.3841 133.235 77.8176 133.76C77.9459 133.914 77.8892 134.33 77.8991 134.528C78.2136 134.718 78.5028 134.958 78.7976 135.178C78.902 135.429 79.0952 135.737 79.1027 136.01C79.1111 136.33 79.1196 136.65 79.1285 136.97C79.2029 137.121 79.3016 137.459 79.4401 137.545C79.7228 137.721 79.976 137.954 80.2423 138.155C80.4126 138.278 80.4725 138.368 80.5235 138.58C80.5745 138.792 80.6199 139.005 80.6705 139.217C80.684 139.273 80.7028 139.484 80.7524 139.523C81.064 139.769 81.3472 140.053 81.664 140.294C81.862 140.445 82.1062 140.497 82.2986 140.658C82.6093 140.918 82.8864 141.221 83.2055 141.473C83.3389 141.578 83.8883 141.837 83.8883 142.014C83.8977 142.16 83.9113 142.305 83.9258 142.449C83.8205 142.526 83.7138 142.603 83.6075 142.679C83.6057 142.805 83.6047 142.93 83.6047 143.054H83.8205C83.9567 143.054 84.0432 143.06 84.1504 143.154C84.2557 143.246 84.3966 143.456 84.544 143.467C84.7883 143.485 85.0321 143.515 85.2754 143.54C85.3672 143.472 85.4584 143.403 85.5473 143.33C85.6681 143.23 86.0308 143.328 86.1819 143.34C86.3158 143.186 86.4519 143.036 86.5905 142.887C86.7982 142.916 87.006 142.945 87.2134 142.974C87.2204 142.893 87.1993 142.581 87.3144 142.603C87.5798 142.666 87.8985 142.634 88.1713 142.642C88.3955 142.468 88.6192 142.294 88.8419 142.118C88.9163 142.133 89.1925 142.15 89.2299 142.207C89.3057 142.286 89.2753 142.667 89.2837 142.772C89.2959 142.932 89.3085 143.091 89.3202 143.251C89.3286 143.358 89.25 143.516 89.2205 143.62C89.1592 143.84 89.096 144.058 89.023 144.275C88.6253 145.455 88.0978 146.549 87.5175 147.642C87.3392 147.978 87.16 148.314 86.9808 148.652C86.9246 148.759 86.7875 148.855 86.7023 148.941C86.5591 149.086 86.415 149.231 86.2718 149.377C85.8651 149.788 85.464 150.208 84.9951 150.544C84.8056 150.685 84.5987 150.821 84.4237 150.982C84.2309 151.23 84.0442 151.479 83.8514 151.727C83.3076 152.427 82.8082 153.299 82.03 153.733C82.0375 153.903 82.0431 154.074 82.0491 154.244C81.8732 154.505 81.6968 154.766 81.5203 155.027C81.4375 154.982 81.3523 154.942 81.2639 154.909C81.2784 155.239 81.2147 155.451 81.0743 155.746C81.1941 156.085 81.3139 156.424 81.4333 156.762C81.3874 157.033 81.2873 157.333 81.3444 157.603C81.4277 158.002 81.5287 158.393 81.634 158.785C81.8142 158.964 81.9944 159.141 82.1741 159.32C82.1259 159.612 82.0772 159.904 82.0276 160.196C82.0969 160.33 82.1675 160.464 82.2382 160.597C82.1666 160.995 82.0824 161.375 82.1151 161.781C82.1474 162.211 82.1418 162.643 82.1418 163.075C81.9284 163.325 81.7234 163.611 81.4731 163.821C81.3139 163.954 81.0734 164.036 80.89 164.13C80.6644 164.247 80.4379 164.362 80.2062 164.467C79.6882 164.701 79.2609 165.049 78.8392 165.431C78.6127 165.634 78.4007 165.776 78.1288 165.901C78.1288 165.962 78.1654 166.222 78.0774 166.201C78.0465 166.193 77.966 166.179 77.9005 166.169C77.7849 166.154 77.7754 166.157 77.7723 166.206C77.7385 166.593 77.7137 166.869 77.8701 167.227C77.9969 167.519 78.0292 167.822 78.0722 168.136C78.1097 168.407 78.127 168.593 78.0825 168.86C78.0474 169.075 78.0114 169.29 77.9763 169.505C77.4148 169.74 76.8544 169.975 76.294 170.21C76.1157 170.284 76.0492 170.491 75.9612 170.653C75.9993 170.975 76.0334 171.297 76.0546 171.621C75.792 171.962 75.6249 172.334 75.451 172.729C75.3273 172.79 74.9041 172.93 74.8968 173.082C74.8911 173.236 74.6699 173.473 74.5899 173.593C74.2778 174.058 73.9195 174.507 73.5325 174.91C73.5275 174.914 73.5213 174.919 73.5166 174.924L94.0108 170.127C98.3135 169.119 101.032 164.675 100.053 160.25" fill="white"/>
</svg>
