<svg width="300" height="300" viewBox="0 0 300 300" fill="none" xmlns="http://www.w3.org/2000/svg">
<rect width="300" height="300" fill="white"/>
<g clip-path="url(#clip0)">
<path d="M57.9675 131.181L43.7009 157.663L52.3122 174.111C52.3122 174.111 53.9826 177.95 57.9152 177.95C61.8477 177.95 63.6176 174.111 63.6176 174.111L72.3441 157.669L57.9675 131.181Z" fill="#3FAE2A"/>
<path d="M84.935 130.586C84.936 127.966 84.1205 125.411 82.6024 123.277C81.0843 121.144 78.9392 119.538 76.4662 118.684C73.9932 117.829 71.3157 117.769 68.8069 118.511C66.2981 119.254 64.0831 120.761 62.4708 122.824C61.4052 123.92 57.9675 131.183 57.9675 131.183L72.3467 157.666C72.3467 157.666 81.7932 139.991 82.4687 138.604C83.1442 137.217 84.935 134.112 84.935 130.586Z" fill="#4DC4CF"/>
<path d="M31 130.586C31.0017 127.968 31.8184 125.416 33.3363 123.285C34.8542 121.154 36.9979 119.55 39.4688 118.696C41.9397 117.842 44.6149 117.782 47.122 118.522C49.6291 119.262 51.8433 120.767 53.4563 122.827C54.5219 123.923 57.9675 131.183 57.9675 131.183L43.7009 157.666C43.7009 157.666 34.1418 139.991 33.4585 138.604C32.7751 137.217 31 134.112 31 130.586Z" fill="#FFCE34"/>
<path d="M96.3531 121.584H103.786C106.287 121.584 107.423 121.778 108.428 122.234C110.732 123.283 112.193 125.486 112.193 128.54C112.193 131.304 110.732 133.871 108.297 134.846V134.912C108.605 135.258 108.869 135.64 109.083 136.05L113.822 144.666H109.143L104.572 136.053H100.54V144.669H96.3504L96.3531 121.584ZM104.31 132.421C106.551 132.421 107.946 131.089 107.946 128.779C107.946 126.569 107.004 125.203 103.726 125.203H100.54V132.421H104.31ZM122.375 127.701C127.148 127.701 129.706 131.181 129.706 135.567C129.706 136.055 129.609 137.162 129.609 137.162H118.186C118.448 140.046 120.687 141.551 123.161 141.551C125.824 141.551 127.934 139.731 127.934 139.731L129.526 142.689C127.654 144.238 125.298 145.078 122.87 145.062C117.372 145.062 113.968 141.095 113.968 136.38C113.976 131.273 117.448 127.701 122.375 127.701ZM125.556 134.333C125.491 132.088 124.096 130.887 122.279 130.887C120.168 130.887 118.707 132.198 118.317 134.333H125.556ZM141.088 134.256H141.64V134.028C141.64 131.849 140.276 131.102 138.459 131.102C136.09 131.102 133.914 132.696 133.914 132.696L132.343 129.739C134.246 128.398 136.52 127.685 138.847 127.701C143.195 127.701 145.73 130.108 145.73 134.301V144.671H141.931V143.302C141.931 142.912 141.953 142.521 141.996 142.133H141.931C141.962 142.133 140.664 145.059 136.899 145.059C133.945 145.059 131.283 143.205 131.283 139.891C131.277 134.624 138.394 134.256 141.088 134.256ZM137.946 141.832C140.122 141.832 141.679 139.49 141.679 137.476V137.094H140.965C138.854 137.094 135.445 137.387 135.445 139.695C135.438 140.812 136.252 141.839 137.938 141.839L137.946 141.832ZM156.834 127.701C161.151 127.701 163.196 130.171 163.196 130.171L161.387 132.998C160.219 131.886 158.68 131.249 157.069 131.21C154.016 131.21 152.037 133.517 152.037 136.346C152.037 139.175 154.04 141.548 157.197 141.548C159.988 141.548 162.067 139.435 162.067 139.435L163.659 142.361C163.659 142.361 161.29 145.059 156.852 145.059C151.354 145.059 147.858 141.192 147.858 136.378C147.84 131.663 151.346 127.701 156.834 127.701ZM165.762 121.584H169.885V129.581C169.885 130.394 169.82 130.979 169.82 130.979H169.885C170.697 129.387 172.708 127.701 175.598 127.701C179.264 127.701 181.345 129.621 181.345 134.007V144.671H177.253V134.849C177.253 132.833 176.729 131.467 174.635 131.467C172.459 131.467 170.773 132.898 170.155 134.912C169.964 135.61 169.876 136.333 169.893 137.057V144.661H165.762V121.584ZM86.3306 153.353H90.8025L95.8216 168.275C96.2719 169.586 96.6594 171.626 96.6908 171.626H96.7563C96.7877 171.626 97.1752 169.596 97.6255 168.275L102.679 153.353H107.13L98.7958 176.235H94.6643L86.3306 153.353ZM114.442 159.41C119.461 159.41 123.485 162.986 123.485 168.015C123.485 173.044 119.464 176.621 114.476 176.621C109.489 176.621 105.433 173.062 105.433 168.015C105.433 162.968 109.455 159.41 114.442 159.41V159.41ZM114.474 173.138C117.113 173.138 119.333 171.075 119.333 168.015C119.333 164.955 117.113 162.892 114.474 162.892C111.834 162.892 109.583 164.989 109.583 168.015C109.583 171.041 111.803 173.138 114.474 173.138ZM125.577 153.353H129.633V170.498C129.633 172.302 130.246 172.753 131.306 172.753C131.628 172.753 131.919 172.722 131.919 172.722V176.298C131.492 176.36 131.062 176.393 130.631 176.395C128.379 176.395 125.577 175.816 125.577 171.109V153.353ZM133.751 159.798H137.838V169.531C137.838 171.529 138.362 172.882 140.381 172.882C143.342 172.882 144.984 170.26 144.984 167.339V159.798H149.081V176.232H145.154V174.373C145.154 173.986 145.176 173.599 145.219 173.215H145.154C144.35 174.921 142.258 176.623 139.459 176.623C135.951 176.623 133.762 174.851 133.762 170.372L133.751 159.798ZM152.346 159.798H156.273V161.699C156.272 162.075 156.25 162.452 156.208 162.826H156.273C156.98 161.439 158.784 159.417 162.099 159.417C165.735 159.417 167.793 161.318 167.793 165.668V176.238H163.743V166.507C163.743 164.509 163.219 163.156 161.125 163.156C158.936 163.156 157.328 164.543 156.716 166.507C156.502 167.218 156.404 167.958 156.425 168.699V176.24H152.346V159.798ZM171.553 163.311H169.43V160.055H171.65V155.319H175.64V160.057H179.374V163.311H175.64V169.693C175.64 172.399 177.763 172.787 178.889 172.787C179.138 172.79 179.386 172.768 179.63 172.722V176.298C179.216 176.368 178.796 176.4 178.376 176.395C176.09 176.395 171.553 175.719 171.553 170.207V163.311ZM189.189 159.41C193.92 159.41 196.463 162.858 196.463 167.207C196.463 167.69 196.366 168.781 196.366 168.781H185.037C185.299 171.649 187.514 173.131 189.959 173.131C192.598 173.131 194.69 171.327 194.69 171.327L196.261 174.258C194.407 175.796 192.071 176.631 189.663 176.618C184.225 176.618 180.845 172.685 180.845 168.012C180.856 162.955 184.299 159.41 189.189 159.41V159.41ZM192.331 165.983C192.266 163.76 190.883 162.574 189.082 162.574C186.987 162.574 185.542 163.864 185.155 165.983H192.331ZM206.574 159.41C211.305 159.41 213.848 162.858 213.848 167.207C213.848 167.69 213.751 168.781 213.751 168.781H202.424C202.686 171.649 204.901 173.131 207.347 173.131C209.986 173.131 212.078 171.327 212.078 171.327L213.649 174.258C211.794 175.796 209.458 176.631 207.051 176.618C201.613 176.618 198.233 172.685 198.233 168.012C198.24 162.955 201.683 159.41 206.574 159.41V159.41ZM209.716 165.983C209.651 163.76 208.268 162.574 206.467 162.574C204.372 162.574 202.927 163.864 202.54 165.983H209.716ZM216.262 159.798H220.189V162.635C220.187 163.022 220.165 163.409 220.123 163.794H220.189C220.93 161.434 222.891 159.572 225.402 159.572C225.65 159.574 225.898 159.596 226.143 159.638V163.665C225.823 163.621 225.5 163.599 225.177 163.6C223.438 163.6 221.477 164.599 220.705 167.048C220.45 167.916 220.331 168.818 220.351 169.722V176.232H216.262V159.798ZM228.206 153.353H232.261V156.995H228.206V153.353ZM228.206 159.798H232.293V176.232H228.206V159.798ZM235.309 159.798H239.236V161.699C239.235 162.075 239.213 162.452 239.171 162.826H239.236C239.943 161.439 241.747 159.417 245.062 159.417C248.698 159.417 250.756 161.318 250.756 165.668V176.238H246.701V166.507C246.701 164.509 246.177 163.156 244.083 163.156C241.894 163.156 240.286 164.543 239.674 166.507C239.46 167.218 239.362 167.958 239.383 168.699V176.24H235.309V159.798ZM260.279 179.521C262.79 179.521 264.913 178.456 264.913 175.525V174.557C264.919 174.266 264.941 173.975 264.978 173.687H264.913C263.947 175.136 262.53 175.91 260.344 175.91C255.645 175.91 252.974 172.108 252.974 167.596C252.974 163.083 255.516 159.41 260.247 159.41C263.819 159.41 265.107 161.507 265.107 161.507H265.204C265.182 161.358 265.172 161.207 265.172 161.056V159.8H268.995V175.236C268.995 180.876 264.617 183.003 260.339 183.003C258.314 182.987 256.32 182.502 254.514 181.584L255.736 178.459C257.158 179.133 258.706 179.495 260.279 179.521V179.521ZM265.01 167.63C265.01 163.891 263.177 162.892 260.954 162.892C258.477 162.892 257.092 164.696 257.092 167.467C257.092 170.336 258.572 172.462 261.211 172.462C263.177 172.462 265.01 171.335 265.01 167.63Z" fill="#292663"/>
</g>
<defs>
<clipPath id="clip0">
<rect width="238" height="65" fill="white" transform="translate(31 118)"/>
</clipPath>
</defs>
</svg>
