<svg width="300" height="300" viewBox="0 0 300 300" fill="none" xmlns="http://www.w3.org/2000/svg">
<rect width="300" height="300" fill="white"/>
<g clip-path="url(#clip0)">
<path d="M250.425 138.12C245.402 138.12 241.117 139.528 237.793 142.271V123H226.713V185.111H237.793V160.281C237.793 152.573 242.225 148.719 248.43 148.719C254.635 148.719 258.993 152.573 258.993 160.281V185.111H270.074V159.392C270 145.161 261.874 138.12 250.425 138.12Z" fill="#00DC55"/>
<path d="M206.768 164.58C206.768 172.066 202.558 175.401 196.574 175.401C190.591 175.401 186.38 171.992 186.38 164.58V139.009H175.3V165.173C175.3 178.514 184.09 186 196.5 186C208.984 186 217.701 178.44 217.701 165.173V139.009H206.62V164.58H206.768Z" fill="#00DC55"/>
<path d="M147.747 138.12C142.724 138.12 138.439 139.528 135.115 142.271V123H124.035V185.111H135.115V160.281C135.115 152.573 139.547 148.719 145.752 148.719C151.957 148.719 156.316 152.573 156.316 160.281V185.111H167.396V159.392C167.396 145.161 159.27 138.12 147.747 138.12Z" fill="#00DC55"/>
<path d="M103.056 175.401C94.6353 175.401 88.7997 169.916 88.7997 162.06C88.7997 154.204 94.6353 148.719 103.056 148.719C106.898 148.719 110.517 149.756 113.398 151.832L117.756 142.345C113.398 139.602 108.079 138.12 102.687 138.12C87.1746 138.12 77.2761 148.052 77.2761 162.06C77.2761 176.068 87.2484 186 102.761 186C108.449 186 114.063 184.295 118.495 181.331L114.063 171.844C111.034 174.141 107.119 175.401 103.056 175.401Z" fill="#00DC55"/>
<path d="M41.4497 155.019C41.4497 150.424 46.3989 147.829 52.6777 147.829C57.1099 147.829 62.133 148.793 66.639 151.313L70.7756 142.271C65.4571 139.232 59.1043 138.12 52.6039 138.12C39.5291 138.12 30.2955 145.235 30.2955 155.686C30.2955 163.765 36.2789 170.213 46.8421 171.547L51.2742 162.06C44.0351 161.319 41.4497 158.576 41.4497 155.019Z" fill="#00DC55"/>
<path d="M55.7802 152.573L51.3481 162.06C58.144 162.653 61.3204 165.247 61.3204 169.101C61.3204 173.993 56.2235 176.291 50.0923 176.291C44.9954 176.291 39.0859 174.882 34.2844 171.695L30 180.886C34.5799 183.999 41.5974 186 50.0923 186C62.2068 186 72.4007 179.552 72.4007 168.508C72.4007 161.171 66.7867 153.907 55.7802 152.573Z" fill="#00DC55"/>
</g>
<defs>
<clipPath id="clip0">
<rect width="240" height="63" fill="white" transform="translate(30 123)"/>
</clipPath>
</defs>
</svg>
