<svg width="300" height="300" viewBox="0 0 300 300" fill="none" xmlns="http://www.w3.org/2000/svg">
<rect width="300" height="300" fill="#608D60"/>
<g clip-path="url(#clip0)">
<path d="M60.3819 167.623C60.3819 168.752 59.7436 169.329 59.0521 169.683C60.1425 170.051 60.8999 170.667 60.8999 171.927C60.8999 173.581 59.5302 174.46 57.4563 174.46H53.1483V165.274H57.3233C59.1983 165.274 60.3819 166.18 60.3819 167.623ZM58.7462 167.885C58.7462 167.138 58.1611 166.704 57.1105 166.704H54.7574V169.144H56.9909C58.0414 169.145 58.7462 168.739 58.7462 167.885ZM59.2648 171.757C59.2648 170.969 58.6398 170.51 57.3505 170.51H54.758V173.029H57.4702C58.5866 173.029 59.2648 172.596 59.2648 171.757Z" fill="#FDFBF8"/>
<path d="M74.3044 166.718H69.0396V169.106H73.7066V170.549H69.0396V173.016H74.3709V174.46H67.4039V165.274H74.3044V166.718Z" fill="#FDFBF8"/>
<path d="M84.4382 174.46H80.968V165.274H84.4382C87.3632 165.274 89.3845 167.256 89.3845 169.854C89.3845 172.452 87.3632 174.46 84.4382 174.46ZM84.4382 166.744H82.6037V172.99H84.4382C86.3924 172.99 87.669 171.691 87.669 169.879C87.669 168.069 86.393 166.744 84.4382 166.744Z" fill="#FDFBF8"/>
<path d="M111.114 174.644L109.877 173.397C109.079 174.132 108.149 174.591 107.019 174.591C105.29 174.591 103.987 173.568 103.987 171.954C103.987 170.759 104.692 169.907 105.968 169.368C105.436 168.686 105.197 168.122 105.197 167.439C105.197 166.193 106.207 165.116 107.869 165.116C109.345 165.116 110.342 166.088 110.342 167.347C110.342 168.567 109.531 169.289 108.295 169.749L109.89 171.349C110.249 170.824 110.582 170.221 110.888 169.578L112.124 170.221C111.752 170.956 111.34 171.678 110.861 172.321L112.324 173.791L111.114 174.644ZM106.873 170.366C106.009 170.733 105.636 171.297 105.636 171.901C105.636 172.689 106.288 173.253 107.192 173.253C107.83 173.253 108.415 172.951 108.947 172.452L106.873 170.366ZM107.83 166.39C107.165 166.39 106.726 166.849 106.726 167.505C106.726 167.978 106.912 168.319 107.431 168.883C108.388 168.542 108.894 168.122 108.894 167.439C108.894 166.796 108.455 166.39 107.83 166.39Z" fill="#FDFBF8"/>
<path d="M132.058 154.484H33.5879V155.109H132.058V154.484Z" fill="#76A276"/>
<path d="M265.039 154.484H166.569V155.109H265.039V154.484Z" fill="#76A276"/>
<path d="M168.573 155.099L168.294 154.94C168.294 154.94 166.922 154.154 166.331 153.797C162.969 151.757 162.887 151.479 159.067 150.646C155.827 149.939 152.572 148.732 150.2 146.842C151.055 149.859 154.39 152.671 156.826 153.642C160.346 155.043 163.484 154.169 166.247 154.931C166.263 154.934 166.285 154.933 166.302 154.937C163.724 154.769 160.912 155.255 157.851 156.494C157.268 156.332 155.904 155.94 155.497 155.731C152.522 154.21 152.544 153.562 149.257 153.09C146.468 152.689 142.89 152.463 140.799 152.154C142.201 154.067 145.24 155.255 147.365 155.929C150.434 156.901 153.055 155.961 155.444 156.437C156.038 156.556 156.572 156.753 156.911 156.897C156.203 157.215 155.482 157.577 154.747 157.976L154.715 157.906C154.715 157.906 153.072 158.682 152.294 158.979C147.87 160.667 145.475 160.354 141.887 163.353C138.842 165.897 134.67 171.022 134.67 171.022C134.67 171.022 142.171 169.267 144.887 167.674C148.81 165.372 150.251 161.758 153.003 159.704C153.866 159.059 154.49 158.582 154.747 158.382C155.468 157.984 156.18 157.614 156.871 157.296C156.731 157.531 156.274 158.328 155.982 158.959C154.002 163.214 151.604 164.798 151.15 169.416C150.765 173.336 150.709 176.748 152.909 180.189C153.021 177.526 154.424 171.475 155.289 168.66C156.435 164.931 156.302 162.973 156.823 159.607C156.994 158.506 157.607 157.332 157.869 156.874C161.165 155.517 164.14 154.856 166.845 155.141" fill="#76A276"/>
<path d="M134.452 167.623C134.452 168.752 133.814 169.329 133.122 169.683C134.213 170.051 134.97 170.667 134.97 171.927C134.97 173.581 133.6 174.46 131.526 174.46H127.218V165.274H131.393C133.268 165.274 134.452 166.18 134.452 167.623ZM132.816 167.885C132.816 167.138 132.231 166.704 131.181 166.704H128.827V169.144H131.061C132.111 169.145 132.816 168.739 132.816 167.885ZM133.335 171.757C133.335 170.969 132.71 170.51 131.421 170.51H128.828V173.029H131.54C132.657 173.029 133.335 172.596 133.335 171.757Z" fill="#FDFBF8"/>
<path d="M147.444 174.46L145.158 171.258H143.11V174.46H141.475V165.274H145.623C147.763 165.274 149.08 166.39 149.08 168.188C149.08 169.71 148.162 170.628 146.86 170.983L149.372 174.46H147.444V174.46ZM145.489 166.744H143.11V169.828H145.503C146.673 169.828 147.417 169.224 147.417 168.279C147.418 167.269 146.7 166.744 145.489 166.744Z" fill="#FDFBF8"/>
<path d="M162.644 166.718H157.379V169.106H162.046V170.549H157.379V173.016H162.71V174.46H155.744V165.274H162.644V166.718Z" fill="#FDFBF8"/>
<path d="M178.216 174.46H176.487L175.543 172.242H171.143L170.185 174.46H168.51L172.605 165.208H174.121L178.216 174.46ZM173.336 167.138L171.741 170.812H174.945L173.336 167.138Z" fill="#FDFBF8"/>
<path d="M192.711 174.46H190.729L187.551 170.327L186.102 171.797V174.461H184.467V165.274H186.102V169.894L190.53 165.274H192.537L188.669 169.224L192.711 174.46Z" fill="#FDFBF8"/>
<path d="M205.69 166.744H200.397V169.25H205.091V170.72H200.397V174.46H198.762V165.274H205.69V166.744Z" fill="#FDFBF8"/>
<path d="M219.985 174.46H218.257L217.313 172.242H212.912L211.955 174.46H210.279L214.374 165.208H215.89L219.985 174.46ZM215.106 167.138L213.51 170.812H216.714L215.106 167.138Z" fill="#FDFBF8"/>
<path d="M229.68 169.132C231.647 169.604 232.672 170.299 232.672 171.835C232.672 173.567 231.302 174.591 229.348 174.591C227.925 174.591 226.582 174.106 225.465 173.121L226.45 171.966C227.34 172.727 228.23 173.16 229.388 173.16C230.399 173.16 231.037 172.701 231.037 171.992C231.037 171.323 230.665 170.968 228.937 170.574C226.955 170.102 225.838 169.524 225.838 167.819C225.838 166.218 227.168 165.142 229.016 165.142C230.373 165.142 231.45 165.549 232.393 166.297L231.516 167.517C230.678 166.901 229.84 166.572 228.99 166.572C228.032 166.572 227.474 167.058 227.474 167.674C227.473 168.398 227.899 168.713 229.68 169.132Z" fill="#FDFBF8"/>
<path d="M242.992 174.46H241.343V166.77H238.391V165.274H245.943V166.77H242.992V174.46V174.46Z" fill="#FDFBF8"/>
<path d="M45.6012 128.245L50.6723 139.725L55.4324 128.868H57.6544L50.6723 144.883L45.6031 133.378L40.5302 144.883L33.536 128.868H35.7581L40.553 139.848L45.6012 128.245Z" fill="#EAD411"/>
<path d="M59.8923 128.844H62.0194V144.395H59.8923V128.844Z" fill="#EAD411"/>
<path d="M65.7922 128.844H67.9193V142.296H73.0518V144.395H65.7922V128.844Z" fill="#EAD411"/>
<path d="M75.538 128.844H77.665V142.296H82.7975V144.395H75.538V128.844Z" fill="#EAD411"/>
<path d="M84.0721 136.528C84.0721 134.283 84.9296 132.36 86.6444 130.758C88.3592 129.157 90.4204 128.355 92.8287 128.355C95.1787 128.355 97.2025 129.163 98.9015 130.777C100.6 132.391 101.449 134.308 101.449 136.528C101.449 138.878 100.61 140.864 98.9319 142.487C97.2538 144.109 95.1945 144.92 92.754 144.92C90.3463 144.92 88.2972 144.103 86.607 142.468C84.9169 140.834 84.0721 138.853 84.0721 136.528ZM99.1611 136.625C99.1611 134.91 98.5342 133.465 97.281 132.29C96.0278 131.115 94.4859 130.528 92.6552 130.528C90.915 130.528 89.425 131.125 88.1838 132.32C86.9426 133.516 86.3227 134.95 86.3227 136.625C86.3227 138.325 86.9597 139.762 88.2338 140.936C89.5079 142.111 91.0682 142.698 92.9154 142.698C94.6138 142.698 96.0798 142.098 97.3121 140.899C98.5444 139.701 99.1611 138.276 99.1611 136.625Z" fill="#EAD411"/>
<path d="M114.751 128.245L119.822 139.725L124.582 128.868H126.804L119.822 144.883L114.754 133.378L109.681 144.883L102.686 128.868H104.908L109.703 139.848L114.751 128.245Z" fill="#EAD411"/>
<path d="M129.389 128.844H131.887C133.527 128.844 134.867 129.195 135.907 129.899C136.946 130.602 137.465 131.49 137.465 132.564C137.465 133.873 136.698 134.966 135.164 135.845C137.539 136.627 138.726 137.982 138.726 139.912C138.726 141.256 138.114 142.339 136.89 143.162C135.665 143.984 134.027 144.396 131.973 144.396H129.389V128.844ZM131.516 130.724V135.325C132.704 135.309 133.613 135.085 134.244 134.654C134.874 134.223 135.19 133.629 135.19 132.872C135.19 132.212 134.905 131.686 134.336 131.291C133.767 130.897 133.004 130.699 132.048 130.699C131.842 130.699 131.664 130.707 131.516 130.724ZM131.516 137.169V142.491H131.689C133.545 142.491 134.81 142.198 135.486 141.612C136.162 141.026 136.501 140.428 136.501 139.818C136.501 139.012 136.121 138.37 135.363 137.889C134.604 137.409 133.565 137.169 132.246 137.169H131.516V137.169Z" fill="#EAD411"/>
<path d="M147.118 128.245L154.558 144.395H152.302L150.473 140.416H143.787L141.979 144.395H139.74L147.118 128.245ZM147.112 133.099L144.592 138.646H149.661L147.112 133.099Z" fill="#EAD411"/>
<path d="M156.413 128.221L168.063 140.041V128.844H170.215V145.115L158.565 133.349V144.395H156.413V128.221Z" fill="#EAD411"/>
<path d="M173.431 128.844H175.583V135.16L182.267 128.844H185.267L177.652 136.06L185.317 144.395H182.577L175.583 136.809V144.395H173.431V128.844Z" fill="#EAD411"/>
<path d="M194.47 128.844H196.621V134.825H204.154V128.844H206.281V144.395H204.154V136.925H196.621V144.395H194.47V128.844Z" fill="#EAD411"/>
<path d="M209.039 136.528C209.039 134.283 209.896 132.36 211.611 130.758C213.326 129.157 215.387 128.355 217.795 128.355C220.145 128.355 222.169 129.163 223.868 130.777C225.566 132.391 226.416 134.308 226.416 136.528C226.416 138.878 225.577 140.864 223.898 142.487C222.22 144.109 220.161 144.92 217.72 144.92C215.312 144.92 213.264 144.103 211.574 142.468C209.883 140.834 209.039 138.853 209.039 136.528ZM224.128 136.625C224.128 134.91 223.501 133.465 222.248 132.29C220.995 131.115 219.453 130.528 217.622 130.528C215.882 130.528 214.392 131.125 213.151 132.32C211.91 133.516 211.29 134.95 211.29 136.625C211.29 138.325 211.927 139.762 213.201 140.936C214.475 142.111 216.035 142.698 217.883 142.698C219.581 142.698 221.046 142.098 222.279 140.899C223.512 139.701 224.128 138.276 224.128 136.625Z" fill="#EAD411"/>
<path d="M229.149 128.868H231.301V138.426C231.301 139.842 231.645 140.937 232.334 141.71C233.022 142.483 233.997 142.869 235.259 142.869C236.512 142.869 237.487 142.513 238.184 141.801C238.88 141.089 239.229 140.086 239.229 138.792V128.868H241.38V138.646C241.38 140.55 240.83 142.072 239.73 143.212C238.629 144.351 237.163 144.92 235.333 144.92C233.461 144.92 231.963 144.343 230.837 143.187C229.712 142.032 229.149 140.327 229.149 138.072V128.868H229.149Z" fill="#EAD411"/>
<path d="M254.145 130.577L252.401 131.957C251.94 131.485 251.523 131.133 251.148 130.901C250.774 130.669 250.233 130.553 249.526 130.553C248.753 130.553 248.126 130.725 247.644 131.07C247.163 131.415 246.922 131.86 246.922 132.403C246.922 132.873 247.132 133.289 247.553 133.65C247.973 134.012 248.689 134.407 249.701 134.835C250.714 135.265 251.502 135.664 252.065 136.034C252.629 136.404 253.092 136.813 253.454 137.26C253.816 137.707 254.085 138.179 254.262 138.675C254.439 139.17 254.528 139.695 254.528 140.248C254.528 141.542 254.052 142.643 253.099 143.554C252.147 144.465 250.994 144.92 249.642 144.92C248.323 144.92 247.158 144.564 246.148 143.852C245.137 143.14 244.361 142.072 243.817 140.648L245.968 140.05C246.751 141.8 247.951 142.674 249.568 142.674C250.35 142.674 251.003 142.443 251.522 141.98C252.041 141.518 252.301 140.934 252.301 140.228C252.301 139.806 252.165 139.382 251.892 138.956C251.619 138.53 251.281 138.179 250.877 137.903C250.472 137.628 249.829 137.311 248.946 136.953C248.064 136.596 247.385 136.269 246.909 135.973C246.434 135.676 246.022 135.322 245.674 134.912C245.327 134.501 245.072 134.092 244.911 133.686C244.749 133.279 244.669 132.844 244.669 132.381C244.669 131.267 245.122 130.317 246.029 129.533C246.936 128.748 248.036 128.355 249.331 128.355C250.189 128.355 251.059 128.538 251.941 128.905C252.826 129.271 253.56 129.828 254.145 130.577Z" fill="#EAD411"/>
<path d="M257.015 128.844H265.746V130.967H259.142V134.849H265.746V136.949H259.142V142.295H265.746V144.395H257.015V128.844Z" fill="#EAD411"/>
</g>
<defs>
<clipPath id="clip0">
<rect width="240" height="60" fill="white" transform="translate(30 120)"/>
</clipPath>
</defs>
</svg>
