<svg width="29" height="29" viewBox="0 0 29 29" fill="none" xmlns="http://www.w3.org/2000/svg">
<path fill-rule="evenodd" clip-rule="evenodd" d="M21.2837 17.6414L24.7805 14.1446L21.2662 10.6304L17.7695 14.1272L21.2837 17.6414ZM26.889 16.2532V16.2532C28.0477 15.0944 28.0372 13.2053 26.8785 12.0466V12.0466L23.3643 8.53237V8.53237C22.2056 7.37365 20.3164 7.36317 19.1577 8.52189V8.52189L16.5154 11.1642L16.4947 2.82866C16.4926 2.01018 15.8296 1.34717 15.0111 1.34513V1.34513C14.1869 1.34308 13.5181 2.0118 13.5202 2.83607L13.5413 11.2977L10.7445 8.50094V8.50094C9.58582 7.34222 7.69668 7.33174 6.53796 8.49046V8.49046L3.0412 11.9872V11.9872C1.88248 13.1459 1.89296 15.0351 3.05168 16.1938V16.1938L6.56589 19.708L7.26874 20.4109L8.67442 21.8165L9.37727 22.5194L12.8915 26.0336V26.0336C14.0502 27.1923 15.9393 27.2028 17.0981 26.0441V26.0441L20.5948 22.5473L21.2942 21.848L22.6929 20.4493L23.3922 19.7499L26.889 16.2532ZM18.4863 20.4388L14.9895 23.9356L11.4753 20.4213L14.9721 16.9246L18.4863 20.4388ZM12.1607 14.1132L8.66395 17.61L5.14973 14.0957L8.64649 10.599L12.1607 14.1132Z" fill="#212121"/>
</svg>
