<svg width="192" height="192" viewBox="0 0 192 192" fill="none" xmlns="http://www.w3.org/2000/svg">
<path d="M192 0H0V192H192V0Z" fill="#F7F7F7"/>
<path fill-rule="evenodd" clip-rule="evenodd" d="M87.5923 64.4186H65.3391V86.7829H87.5923V64.4186ZM65.3391 51H56.9872C54.2257 51 51.9872 53.2386 51.9872 56V64.4186V86.7829V95.2015C51.9872 97.963 54.2257 100.202 56.9872 100.202H65.3391H82.1545L54.5092 127.985C52.5683 129.935 52.5683 133.088 54.5092 135.038L56.8969 137.438C58.8515 139.402 62.031 139.402 63.9856 137.438L92.0429 109.24V127.039V135.457C92.0429 138.219 94.2815 140.457 97.0429 140.457H105.395H127.648H136C138.761 140.457 141 138.219 141 135.457V127.039V104.674V100.202V91.2558V86.7829V64.4186V56C141 53.2386 138.761 51 136 51H127.648H105.395H100.944H92.0429H87.5923H65.3391ZM105.395 64.4186H127.648V86.7829H105.395V64.4186ZM105.395 104.674H127.648V127.039H105.395V104.674Z" fill="url(#paint0_linear)"/>
<defs>
<linearGradient id="paint0_linear" x1="55.7727" y1="120.545" x2="138.409" y2="69.8013" gradientUnits="userSpaceOnUse">
<stop stop-color="#FFA700"/>
<stop offset="1" stop-color="#FF0099"/>
</linearGradient>
</defs>
</svg>
