<svg width="20" height="20" viewBox="0 0 20 20" fill="none" xmlns="http://www.w3.org/2000/svg">
<path fill-rule="evenodd" clip-rule="evenodd" d="M8.13162 2.98191H3.18646V7.95176H8.13162V2.98191ZM3.18646 0V0C1.54778 0 0.219369 1.34323 0.219369 2.98191V2.98191V7.95176V7.95176C0.219369 9.59045 1.54778 10.9337 3.18646 10.9337V10.9337H6.92322L1.0438 16.8425C0.466486 17.4227 0.466487 18.3603 1.0438 18.9405V18.9405C1.6252 19.5248 2.57091 19.5248 3.1523 18.9405L9.12065 12.9423V16.8975V16.8975C9.12065 18.5362 10.4491 19.8794 12.0877 19.8794V19.8794H17.0329V19.8794C18.6716 19.8794 20 18.5362 20 16.8975V16.8975V11.9276V10.9337V8.94574V7.95176V2.98191V2.98191C20 1.34323 18.6716 0 17.0329 0V0H12.0877H11.0987H9.12065H8.13162H3.18646ZM12.0877 2.98191H17.0329V7.95176H12.0877V2.98191ZM12.0877 11.9276H17.0329V16.8975H12.0877V11.9276Z" fill="url(#paint0_linear)"/>
<defs>
<linearGradient id="paint0_linear" x1="1.06061" y1="15.4545" x2="19.4242" y2="4.17808" gradientUnits="userSpaceOnUse">
<stop stop-color="#FFA700"/>
<stop offset="1" stop-color="#FF0099"/>
</linearGradient>
</defs>
</svg>
