<svg width="90" height="90" viewBox="0 0 90 90" fill="none" xmlns="http://www.w3.org/2000/svg">
<path d="M55.5469 78.0469H34.4531C34.0664 78.0469 33.75 78.3633 33.75 78.75V81.5625C33.75 83.1182 35.0068 84.375 36.5625 84.375H53.4375C54.9932 84.375 56.25 83.1182 56.25 81.5625V78.75C56.25 78.3633 55.9336 78.0469 55.5469 78.0469ZM45 5.625C29.083 5.625 16.1719 18.5361 16.1719 34.4531C16.1719 45.123 21.9727 54.4395 30.5859 59.4228V69.6094C30.5859 71.165 31.8428 72.4219 33.3984 72.4219H56.6016C58.1572 72.4219 59.4141 71.165 59.4141 69.6094V59.4228C68.0273 54.4395 73.8281 45.123 73.8281 34.4531C73.8281 18.5361 60.917 5.625 45 5.625ZM56.2412 53.9473L53.0859 55.7754V66.0938H36.9141V55.7754L33.7588 53.9473C26.8418 49.9482 22.5 42.583 22.5 34.4531C22.5 22.0254 32.5723 11.9531 45 11.9531C57.4277 11.9531 67.5 22.0254 67.5 34.4531C67.5 42.583 63.1582 49.9482 56.2412 53.9473Z" fill="url(#paint0_linear)"/>
<defs>
<linearGradient id="paint0_linear" x1="19.2294" y1="66.4773" x2="79.8726" y2="39.213" gradientUnits="userSpaceOnUse">
<stop stop-color="#FFA700"/>
<stop offset="1" stop-color="#FF0099"/>
</linearGradient>
</defs>
</svg>
