<svg width="90" height="90" viewBox="0 0 90 90" fill="none" xmlns="http://www.w3.org/2000/svg">
<path d="M80.5956 18.5538L63.0878 20.6632C62.5077 20.7335 62.2616 21.4454 62.6747 21.8585L67.8866 27.0704L48.0233 46.9337L39.0761 37.9952C38.5224 37.4415 37.6347 37.4503 37.0897 37.9952L8.81534 66.2784C8.68449 66.4106 8.61108 66.5891 8.61108 66.775C8.61108 66.961 8.68449 67.1395 8.81534 67.2716L12.7704 71.2443C13.0429 71.5167 13.4911 71.5167 13.7636 71.2443L38.0829 46.9337L47.0214 55.8722C47.5751 56.4171 48.4628 56.4171 49.0077 55.8722L72.8612 32.0363L78.0731 37.2482C78.1665 37.3411 78.2841 37.406 78.4126 37.4354C78.541 37.4648 78.6751 37.4576 78.7997 37.4145C78.9242 37.3715 79.0341 37.2944 79.117 37.1919C79.1999 37.0895 79.2524 36.9659 79.2684 36.8351L81.3778 19.3273C81.4393 18.879 81.0526 18.4923 80.5956 18.5538V18.5538Z" fill="url(#paint0_linear)"/>
<defs>
<linearGradient id="paint0_linear" x1="12.4703" y1="59.4256" x2="66.1676" y2="14.0655" gradientUnits="userSpaceOnUse">
<stop stop-color="#FFA700"/>
<stop offset="1" stop-color="#FF0099"/>
</linearGradient>
</defs>
</svg>
