<svg width="824" height="896" viewBox="0 0 824 896" fill="none" xmlns="http://www.w3.org/2000/svg">
<path d="M808 576H704V424C704 419.6 700.4 416 696 416H448V320H556C564.8 320 572 312.8 572 304V16C572 7.2 564.8 0 556 0H268C259.2 0 252 7.2 252 16V304C252 312.8 259.2 320 268 320H376V416H128C123.6 416 120 419.6 120 424V576H16C7.2 576 0 583.2 0 592V880C0 888.8 7.2 896 16 896H304C312.8 896 320 888.8 320 880V592C320 583.2 312.8 576 304 576H192V488H632V576H520C511.2 576 504 583.2 504 592V880C504 888.8 511.2 896 520 896H808C816.8 896 824 888.8 824 880V592C824 583.2 816.8 576 808 576ZM244 652V820H76V652H244ZM328 244V76H496V244H328ZM748 820H580V652H748V820Z" fill="url(#paint0_linear)"/>
<defs>
<linearGradient id="paint0_linear" x1="0" y1="896" x2="892.865" y2="74.8827" gradientUnits="userSpaceOnUse">
<stop stop-color="#FFA700"/>
<stop offset="1" stop-color="#FF0099"/>
</linearGradient>
</defs>
</svg>
