<svg width="100" height="90" viewBox="0 0 100 90" fill="none" xmlns="http://www.w3.org/2000/svg">
<path d="M82.0312 16.875H76.5625V10.5469C76.5625 9.37793 75.5176 8.4375 74.2188 8.4375H16.4062C15.1074 8.4375 14.0625 9.37793 14.0625 10.5469V34.4531C14.0625 35.6221 15.1074 36.5625 16.4062 36.5625H74.2188C75.5176 36.5625 76.5625 35.6221 76.5625 34.4531V22.5H79.6875V40.0781H45.4102C43.252 40.0781 41.5039 41.6514 41.5039 43.5938V55.5469H37.207C36.7773 55.5469 36.4258 55.8633 36.4258 56.25V76.2891C36.4258 76.3418 36.4355 76.4033 36.4453 76.4561C36.4355 76.6318 36.4258 76.8164 36.4258 76.9922C36.4258 81.0703 40.0977 84.375 44.6289 84.375C49.1602 84.375 52.832 81.0703 52.832 76.9922C52.832 76.8076 52.8223 76.6318 52.8125 76.4561C52.8223 76.4033 52.832 76.3506 52.832 76.2891V56.25C52.832 55.8633 52.4805 55.5469 52.0508 55.5469H47.7539V45.7031H82.0312C84.1895 45.7031 85.9375 44.1299 85.9375 42.1875V20.3906C85.9375 18.4482 84.1895 16.875 82.0312 16.875ZM70.3125 30.9375H20.3125V14.0625H70.3125V30.9375ZM46.582 76.9922C46.582 77.959 45.7031 78.75 44.6289 78.75C43.5547 78.75 42.6758 77.959 42.6758 76.9922V61.1719H46.582V76.9922Z" fill="url(#paint0_linear)"/>
<defs>
<linearGradient id="paint0_linear" x1="17.8741" y1="67.1165" x2="85.8051" y2="27.6338" gradientUnits="userSpaceOnUse">
<stop stop-color="#FFA700"/>
<stop offset="1" stop-color="#FF0099"/>
</linearGradient>
</defs>
</svg>
